<svg width="64" height="64" viewBox="0 0 64 64" fill="none" xmlns="http://www.w3.org/2000/svg">
  <rect width="64" height="64" rx="16" fill="#121214"/>
  <path d="M16 22C16 19.7909 17.7909 18 20 18H44C46.2091 18 48 19.7909 48 22V42C48 44.2091 46.2091 46 44 46H20C17.7909 46 16 44.2091 16 42V22Z" stroke="#B1C1D3" stroke-width="1.5"/>
  <path d="M22 28C22 26.8954 22.8954 26 24 26H40C41.1046 26 42 26.8954 42 28V36C42 37.1046 41.1046 38 40 38H24C22.8954 38 22 37.1046 22 36V28Z" fill="#B1C1D3" fill-opacity="0.1" stroke="#B1C1D3" stroke-width="1.5"/>
  <path d="M26 31H38" stroke="#B1C1D3" stroke-width="2" stroke-linecap="round"/>
  <path d="M26 34H34" stroke="#B1C1D3" stroke-width="2" stroke-linecap="round"/>
  <circle cx="50" cy="14" r="4" fill="#B1C1D3" fill-opacity="0.5"/>
</svg>
